<?xml version="1.0" encoding="UTF-8"?>
<svg xmlns="http://www.w3.org/2000/svg" xmlns:xlink="http://www.w3.org/1999/xlink" width="150px" height="px" viewBox="0 0 150 150" version="1.1">
<g id="surface1">
<path style=" stroke:none;fill-rule:nonzero;fill:rgb(35.686275%,47.843137%,49.803922%);fill-opacity:1;" d="M 71.84375 81.316406 L 71.84375 141.382812 C 71.84375 144.945312 68.890625 147.820312 65.296875 147.695312 C 61.875 147.574219 59.210938 144.65625 59.210938 141.230469 L 59.210938 112.960938 C 59.210938 109.472656 56.382812 106.644531 52.894531 106.644531 C 49.40625 106.644531 46.578125 109.472656 46.578125 112.960938 L 46.578125 141.382812 C 46.578125 144.949219 43.625 147.824219 40.03125 147.695312 C 36.609375 147.574219 33.949219 144.65625 33.949219 141.230469 L 33.949219 81.316406 Z M 71.84375 81.316406 "/>
<path style=" stroke:none;fill-rule:nonzero;fill:rgb(56.470591%,70.980394%,74.901962%);fill-opacity:1;" d="M 81.316406 56.121094 L 81.316406 87.699219 L 24.472656 87.699219 L 24.472656 56.121094 C 24.472656 45.65625 32.957031 37.171875 43.421875 37.171875 L 62.367188 37.171875 C 72.832031 37.171875 81.316406 45.65625 81.316406 56.121094 Z M 81.316406 56.121094 "/>
<path style=" stroke:none;fill-rule:nonzero;fill:rgb(46.27451%,61.176473%,64.705884%);fill-opacity:1;" d="M 52.894531 87.699219 L 24.472656 87.699219 L 24.472656 56.121094 C 24.472656 45.65625 32.957031 37.171875 43.421875 37.171875 L 52.894531 37.171875 Z M 52.894531 87.699219 "/>
<path style=" stroke:none;fill-rule:nonzero;fill:rgb(95.686275%,75.294119%,39.215687%);fill-opacity:1;" d="M 65.527344 15.066406 C 65.527344 22.042969 59.871094 27.699219 52.894531 27.699219 C 45.917969 27.699219 40.261719 22.042969 40.261719 15.066406 C 40.261719 8.089844 45.917969 2.4375 52.894531 2.4375 C 59.871094 2.4375 65.527344 8.089844 65.527344 15.066406 Z M 33.949219 62.4375 L 24.472656 62.4375 L 24.472656 97.171875 C 24.472656 100.660156 27.300781 103.488281 30.789062 103.488281 C 34.277344 103.488281 37.105469 100.660156 37.105469 97.171875 L 37.105469 65.59375 C 37.105469 63.851562 35.691406 62.4375 33.949219 62.4375 Z M 97.105469 81.382812 L 81.316406 81.382812 L 81.316406 62.4375 L 71.84375 62.4375 C 70.097656 62.4375 68.683594 63.851562 68.683594 65.59375 L 68.683594 87.699219 C 68.683594 91.1875 71.511719 94.015625 75 94.015625 L 97.105469 94.015625 C 100.59375 94.015625 103.421875 91.1875 103.421875 87.699219 C 103.421875 84.210938 100.59375 81.382812 97.105469 81.382812 Z M 97.105469 81.382812 "/>
<path style=" stroke:none;fill-rule:nonzero;fill:rgb(95.686275%,67.058825%,32.549021%);fill-opacity:1;" d="M 52.894531 2.4375 L 52.894531 27.699219 C 45.917969 27.699219 40.261719 22.042969 40.261719 15.066406 C 40.261719 8.089844 45.917969 2.4375 52.894531 2.4375 Z M 52.894531 2.4375 "/>
<path style=" stroke:none;fill-rule:nonzero;fill:rgb(100%,63.529414%,20%);fill-opacity:1;" d="M 119.210938 56.121094 C 122.699219 56.121094 125.527344 58.949219 125.527344 62.4375 C 125.527344 65.921875 122.699219 68.75 119.210938 68.75 L 100.261719 68.75 C 96.773438 68.75 93.945312 65.921875 93.945312 62.4375 C 93.945312 58.949219 96.773438 56.121094 100.261719 56.121094 C 96.773438 56.121094 93.945312 53.292969 93.945312 49.804688 C 93.945312 46.316406 96.773438 43.488281 100.261719 43.488281 C 96.773438 43.488281 93.945312 40.660156 93.945312 37.171875 C 93.945312 33.683594 96.773438 30.855469 100.261719 30.855469 L 119.210938 30.855469 C 122.699219 30.855469 125.527344 33.683594 125.527344 37.171875 C 125.527344 40.660156 122.699219 43.488281 119.210938 43.488281 C 122.699219 43.488281 125.527344 46.316406 125.527344 49.804688 C 125.527344 53.292969 122.699219 56.121094 119.210938 56.121094 Z M 94.1875 13.003906 C 94.792969 16.441406 98.070312 18.734375 101.503906 18.128906 L 120.164062 14.839844 C 123.597656 14.234375 125.890625 10.957031 125.285156 7.523438 C 124.679688 4.085938 121.40625 1.792969 117.96875 2.398438 L 99.308594 5.6875 C 95.875 6.292969 93.582031 9.570312 94.1875 13.003906 Z M 94.1875 13.003906 "/>
<path style=" stroke:none;fill-rule:nonzero;fill:rgb(100%,76.078433%,28.235295%);fill-opacity:1;" d="M 125.527344 62.4375 L 93.949219 62.4375 C 93.949219 58.949219 96.773438 56.121094 100.261719 56.121094 L 119.210938 56.121094 C 122.699219 56.121094 125.527344 58.949219 125.527344 62.4375 Z M 119.210938 43.488281 L 100.261719 43.488281 C 96.773438 43.488281 93.945312 46.316406 93.945312 49.804688 L 125.527344 49.804688 C 125.527344 46.316406 122.699219 43.488281 119.210938 43.488281 Z M 119.210938 30.855469 L 100.261719 30.855469 C 96.773438 30.855469 93.945312 33.683594 93.945312 37.171875 L 125.527344 37.171875 C 125.527344 33.683594 122.699219 30.855469 119.210938 30.855469 Z M 94.1875 13.003906 L 125.285156 7.523438 C 124.679688 4.085938 121.40625 1.792969 117.96875 2.398438 L 99.308594 5.6875 C 95.875 6.292969 93.582031 9.570312 94.1875 13.003906 Z M 94.1875 13.003906 "/>
<path style=" stroke:none;fill-rule:nonzero;fill:rgb(0%,0%,0%);fill-opacity:1;" d="M 91.855469 13.484375 C 91.023438 8.769531 94.183594 4.257812 98.898438 3.425781 L 109.324219 1.585938 C 110.613281 1.359375 111.84375 2.21875 112.070312 3.507812 C 112.296875 4.796875 111.4375 6.023438 110.148438 6.25 L 99.722656 8.089844 C 98.683594 8.273438 97.777344 8.847656 97.175781 9.714844 C 96.570312 10.578125 96.335938 11.625 96.519531 12.664062 C 96.703125 13.703125 97.28125 14.605469 98.144531 15.210938 C 99.007812 15.816406 100.054688 16.046875 101.09375 15.863281 C 102.378906 15.636719 103.609375 16.496094 103.835938 17.785156 C 104.0625 19.074219 103.203125 20.300781 101.914062 20.527344 C 101.40625 20.617188 100.894531 20.664062 100.390625 20.664062 C 98.625 20.664062 96.902344 20.125 95.425781 19.089844 C 93.527344 17.761719 92.257812 15.769531 91.855469 13.484375 Z M 118.382812 4.800781 C 119.417969 4.617188 120.464844 4.847656 121.332031 5.453125 C 122.195312 6.058594 122.769531 6.960938 122.953125 8 C 123.136719 9.039062 122.90625 10.085938 122.300781 10.949219 C 121.695312 11.816406 120.789062 12.390625 119.753906 12.574219 L 109.324219 14.414062 C 108.039062 14.640625 107.175781 15.867188 107.40625 17.15625 C 107.609375 18.304688 108.605469 19.113281 109.734375 19.113281 C 109.871094 19.113281 110.007812 19.101562 110.148438 19.078125 L 120.574219 17.238281 C 125.292969 16.40625 128.449219 11.894531 127.621094 7.179688 C 127.21875 4.894531 125.949219 2.902344 124.046875 1.574219 C 122.148438 0.242188 119.84375 -0.269531 117.558594 0.136719 C 116.269531 0.363281 115.410156 1.589844 115.636719 2.878906 C 115.863281 4.167969 117.09375 5.027344 118.382812 4.800781 Z M 127.894531 49.738281 C 127.894531 47.253906 126.84375 45.007812 125.164062 43.421875 C 126.84375 41.835938 127.894531 39.59375 127.894531 37.105469 C 127.894531 32.316406 124 28.421875 119.210938 28.421875 C 117.902344 28.421875 116.84375 29.480469 116.84375 30.789062 C 116.84375 32.097656 117.902344 33.160156 119.210938 33.160156 C 121.386719 33.160156 123.15625 34.929688 123.15625 37.105469 C 123.15625 39.28125 121.386719 41.054688 119.210938 41.054688 C 117.902344 41.054688 116.84375 42.113281 116.84375 43.421875 C 116.84375 44.730469 117.902344 45.789062 119.210938 45.789062 C 121.386719 45.789062 123.15625 47.5625 123.15625 49.738281 C 123.15625 51.914062 121.386719 53.683594 119.210938 53.683594 C 117.902344 53.683594 116.84375 54.746094 116.84375 56.054688 C 116.84375 57.363281 117.902344 58.421875 119.210938 58.421875 C 121.386719 58.421875 123.15625 60.191406 123.15625 62.371094 C 123.15625 64.546875 121.386719 66.316406 119.210938 66.316406 L 100.261719 66.316406 C 98.085938 66.316406 96.316406 64.546875 96.316406 62.371094 C 96.316406 60.191406 98.085938 58.421875 100.261719 58.421875 L 109.738281 58.421875 C 111.046875 58.421875 112.105469 57.363281 112.105469 56.054688 C 112.105469 54.746094 111.046875 53.683594 109.738281 53.683594 L 100.261719 53.683594 C 98.085938 53.683594 96.316406 51.914062 96.316406 49.738281 C 96.316406 47.5625 98.085938 45.789062 100.261719 45.789062 L 109.738281 45.789062 C 111.046875 45.789062 112.105469 44.730469 112.105469 43.421875 C 112.105469 42.113281 111.046875 41.054688 109.738281 41.054688 L 100.261719 41.054688 C 98.085938 41.054688 96.316406 39.28125 96.316406 37.105469 C 96.316406 34.929688 98.085938 33.160156 100.261719 33.160156 L 109.738281 33.160156 C 111.046875 33.160156 112.105469 32.097656 112.105469 30.789062 C 112.105469 29.480469 111.046875 28.421875 109.738281 28.421875 L 100.261719 28.421875 C 95.476562 28.421875 91.578125 32.316406 91.578125 37.105469 C 91.578125 39.59375 92.628906 41.835938 94.308594 43.421875 C 92.628906 45.007812 91.578125 47.253906 91.578125 49.738281 C 91.578125 52.222656 92.628906 54.46875 94.308594 56.054688 C 92.628906 57.636719 91.578125 59.882812 91.578125 62.371094 C 91.578125 67.15625 95.476562 71.054688 100.261719 71.054688 L 119.210938 71.054688 C 124 71.054688 127.894531 67.15625 127.894531 62.371094 C 127.894531 59.882812 126.84375 57.636719 125.164062 56.054688 C 126.84375 54.46875 127.894531 52.222656 127.894531 49.738281 Z M 37.894531 15 C 37.894531 6.730469 44.625 0.00390625 52.894531 0.00390625 C 61.164062 0.00390625 67.894531 6.730469 67.894531 15 C 67.894531 23.273438 61.164062 30 52.894531 30 C 44.625 30 37.894531 23.273438 37.894531 15 Z M 42.632812 15 C 42.632812 20.660156 47.234375 25.265625 52.894531 25.265625 C 58.554688 25.265625 63.160156 20.660156 63.160156 15 C 63.160156 9.34375 58.554688 4.738281 52.894531 4.738281 C 47.234375 4.738281 42.632812 9.34375 42.632812 15 Z M 105.789062 87.632812 C 105.789062 92.421875 101.894531 96.316406 97.105469 96.316406 L 75 96.316406 C 74.734375 96.316406 74.46875 96.304688 74.210938 96.28125 L 74.210938 141.316406 C 74.210938 143.695312 73.269531 145.914062 71.554688 147.566406 C 69.921875 149.140625 67.792969 150 65.53125 150 C 65.425781 150 65.320312 149.996094 65.210938 149.992188 C 60.519531 149.828125 56.84375 145.949219 56.84375 141.164062 L 56.84375 112.894531 C 56.84375 110.71875 55.070312 108.949219 52.894531 108.949219 C 50.71875 108.949219 48.945312 110.71875 48.945312 112.894531 L 48.945312 141.316406 C 48.945312 143.695312 48.003906 145.914062 46.292969 147.566406 C 44.582031 149.214844 42.335938 150.074219 39.949219 149.992188 C 35.253906 149.828125 31.578125 145.949219 31.578125 141.164062 L 31.578125 105.753906 C 31.320312 105.777344 31.054688 105.789062 30.789062 105.789062 C 26 105.789062 22.105469 101.894531 22.105469 97.105469 L 22.105469 56.054688 C 22.105469 44.300781 31.667969 34.738281 43.421875 34.738281 L 62.367188 34.738281 C 74.121094 34.738281 83.683594 44.300781 83.683594 56.054688 L 83.683594 78.949219 L 97.105469 78.949219 C 101.894531 78.949219 105.789062 82.84375 105.789062 87.632812 Z M 69.472656 94.328125 C 68.132812 93.21875 67.132812 91.714844 66.644531 90 L 39.472656 90 L 39.472656 97.105469 C 39.472656 99.796875 38.242188 102.207031 36.316406 103.800781 L 36.316406 141.164062 C 36.316406 143.347656 38.019531 145.183594 40.117188 145.261719 C 41.203125 145.292969 42.226562 144.90625 43.003906 144.15625 C 43.78125 143.40625 44.210938 142.394531 44.210938 141.316406 L 44.210938 112.894531 C 44.210938 108.105469 48.105469 104.210938 52.894531 104.210938 C 57.683594 104.210938 61.578125 108.105469 61.578125 112.894531 L 61.578125 141.164062 C 61.578125 143.347656 63.285156 145.183594 65.378906 145.257812 C 66.46875 145.292969 67.488281 144.90625 68.265625 144.15625 C 69.046875 143.40625 69.472656 142.394531 69.472656 141.316406 Z M 101.050781 87.632812 C 101.050781 85.457031 99.28125 83.683594 97.105469 83.683594 L 81.316406 83.683594 C 80.007812 83.683594 78.945312 82.625 78.945312 81.316406 L 78.945312 56.054688 C 78.945312 46.914062 71.507812 39.476562 62.367188 39.476562 L 43.421875 39.476562 C 34.28125 39.476562 26.84375 46.914062 26.84375 56.054688 L 26.84375 97.105469 C 26.84375 99.28125 28.613281 101.054688 30.789062 101.054688 C 31.5 101.054688 32.164062 100.863281 32.742188 100.535156 C 32.753906 100.527344 32.769531 100.519531 32.78125 100.511719 C 33.949219 99.824219 34.738281 98.554688 34.738281 97.105469 L 34.738281 62.371094 C 34.738281 61.0625 35.796875 60 37.105469 60 C 38.414062 60 39.472656 61.0625 39.472656 62.371094 L 39.472656 85.261719 L 66.316406 85.261719 L 66.316406 62.371094 C 66.316406 61.0625 67.375 60 68.683594 60 C 69.992188 60 71.050781 61.0625 71.050781 62.371094 L 71.050781 87.632812 C 71.050781 89.808594 72.824219 91.578125 75 91.578125 L 97.105469 91.578125 C 99.28125 91.578125 101.050781 89.808594 101.050781 87.632812 Z M 101.050781 87.632812 "/>
</g>
</svg>
