<?xml version="1.0" encoding="UTF-8"?>
<svg xmlns="http://www.w3.org/2000/svg" xmlns:xlink="http://www.w3.org/1999/xlink" width="150px" height="px" viewBox="0 0 150 150" version="1.1">
<g id="surface1">
<path style=" stroke:none;fill-rule:nonzero;fill:rgb(54.901963%,75.686276%,91.764706%);fill-opacity:1;" d="M 111.308594 114.429688 L 102.59375 114.429688 L 102.59375 49.179688 L 125.324219 49.179688 C 137.628906 49.179688 147.601562 59.152344 147.601562 71.453125 L 147.601562 114.429688 L 136.898438 114.429688 "/>
<path style=" stroke:none;fill-rule:nonzero;fill:rgb(94.901961%,79.215688%,49.803922%);fill-opacity:1;" d="M 46.9375 114.429688 L 37.34375 114.429688 L 37.34375 42.460938 L 102.59375 42.460938 L 102.59375 114.429688 L 72.527344 114.429688 "/>
<path style=" stroke:none;fill-rule:nonzero;fill:rgb(53.725493%,52.549022%,52.549022%);fill-opacity:1;" d="M 72.527344 114.429688 C 72.527344 107.363281 66.796875 101.636719 59.730469 101.636719 C 52.667969 101.636719 46.9375 107.363281 46.9375 114.429688 C 46.9375 121.496094 52.667969 127.222656 59.730469 127.222656 C 66.796875 127.222656 72.527344 121.496094 72.527344 114.429688 Z M 72.527344 114.429688 "/>
<path style=" stroke:none;fill-rule:nonzero;fill:rgb(92.941177%,92.156863%,92.156863%);fill-opacity:1;" d="M 63.519531 114.429688 C 63.519531 112.339844 61.824219 110.644531 59.730469 110.644531 C 57.640625 110.644531 55.945312 112.339844 55.945312 114.429688 C 55.945312 116.519531 57.640625 118.214844 59.730469 118.214844 C 61.824219 118.214844 63.519531 116.519531 63.519531 114.429688 Z M 63.519531 114.429688 "/>
<path style=" stroke:none;fill-rule:nonzero;fill:rgb(53.725493%,52.549022%,52.549022%);fill-opacity:1;" d="M 136.894531 114.429688 C 136.894531 107.363281 131.167969 101.636719 124.101562 101.636719 C 117.035156 101.636719 111.308594 107.363281 111.308594 114.429688 C 111.308594 121.496094 117.035156 127.222656 124.101562 127.222656 C 131.167969 127.222656 136.894531 121.496094 136.894531 114.429688 Z M 136.894531 114.429688 "/>
<path style=" stroke:none;fill-rule:nonzero;fill:rgb(80.784315%,89.803922%,94.901961%);fill-opacity:1;" d="M 138.007812 81.324219 L 138.007812 71.453125 C 138.007812 64.460938 132.316406 58.773438 125.324219 58.773438 L 112.1875 58.773438 L 112.1875 81.324219 Z M 138.007812 81.324219 "/>
<path style=" stroke:none;fill-rule:nonzero;fill:rgb(92.941177%,92.156863%,92.156863%);fill-opacity:1;" d="M 127.886719 114.429688 C 127.886719 112.339844 126.191406 110.644531 124.101562 110.644531 C 122.011719 110.644531 120.316406 112.339844 120.316406 114.429688 C 120.316406 116.519531 122.011719 118.214844 124.101562 118.214844 C 126.191406 118.214844 127.886719 116.519531 127.886719 114.429688 Z M 127.886719 114.429688 "/>
<path style=" stroke:none;fill-rule:nonzero;fill:rgb(100%,100%,100%);fill-opacity:1;" d="M 64.386719 46.238281 C 64.386719 33.457031 54.023438 23.097656 41.246094 23.097656 C 28.464844 23.097656 18.105469 33.457031 18.105469 46.238281 C 18.105469 59.019531 28.464844 69.378906 41.246094 69.378906 C 54.023438 69.378906 64.386719 59.019531 64.386719 46.238281 Z M 64.386719 46.238281 "/>
<path style=" stroke:none;fill-rule:nonzero;fill:rgb(0%,0%,0%);fill-opacity:1;" d="M 8.796875 65.640625 L 16.3125 65.640625 C 17.636719 65.640625 18.710938 64.566406 18.710938 63.238281 C 18.710938 61.914062 17.636719 60.839844 16.3125 60.839844 L 8.796875 60.839844 C 7.472656 60.839844 6.398438 61.914062 6.398438 63.238281 C 6.398438 64.566406 7.472656 65.640625 8.796875 65.640625 Z M 8.796875 65.640625 "/>
<path style=" stroke:none;fill-rule:nonzero;fill:rgb(0%,0%,0%);fill-opacity:1;" d="M 29.105469 88.027344 L 11.996094 88.027344 C 10.667969 88.027344 9.59375 89.101562 9.59375 90.425781 C 9.59375 91.75 10.667969 92.824219 11.996094 92.824219 L 29.105469 92.824219 C 30.429688 92.824219 31.503906 91.75 31.503906 90.425781 C 31.503906 89.101562 30.429688 88.027344 29.105469 88.027344 Z M 29.105469 88.027344 "/>
<path style=" stroke:none;fill-rule:nonzero;fill:rgb(0%,0%,0%);fill-opacity:1;" d="M 2.398438 78.433594 L 22.707031 78.433594 C 24.035156 78.433594 25.105469 77.359375 25.105469 76.035156 C 25.105469 74.707031 24.035156 73.632812 22.707031 73.632812 L 2.398438 73.632812 C 1.074219 73.632812 0 74.707031 0 76.035156 C 0 77.359375 1.074219 78.433594 2.398438 78.433594 Z M 2.398438 78.433594 "/>
<path style=" stroke:none;fill-rule:nonzero;fill:rgb(0%,0%,0%);fill-opacity:1;" d="M 22.707031 107.21875 L 20.742188 107.21875 C 19.414062 107.21875 18.34375 108.292969 18.34375 109.617188 C 18.34375 110.941406 19.414062 112.015625 20.742188 112.015625 L 22.707031 112.015625 C 24.035156 112.015625 25.105469 110.941406 25.105469 109.617188 C 25.105469 108.292969 24.035156 107.21875 22.707031 107.21875 Z M 22.707031 107.21875 "/>
<path style=" stroke:none;fill-rule:nonzero;fill:rgb(0%,0%,0%);fill-opacity:1;" d="M 12.746094 107.21875 L 2.398438 107.21875 C 1.074219 107.21875 0 108.292969 0 109.617188 C 0 110.941406 1.074219 112.015625 2.398438 112.015625 L 12.746094 112.015625 C 14.070312 112.015625 15.144531 110.941406 15.144531 109.617188 C 15.144531 108.292969 14.070312 107.21875 12.746094 107.21875 Z M 12.746094 107.21875 "/>
<path style=" stroke:none;fill-rule:nonzero;fill:rgb(0%,0%,0%);fill-opacity:1;" d="M 125.324219 46.621094 L 104.992188 46.621094 L 104.992188 42.300781 C 104.992188 40.976562 103.917969 39.902344 102.59375 39.902344 L 72.074219 39.902344 C 70.75 39.902344 69.675781 40.976562 69.675781 42.300781 C 69.675781 43.625 70.75 44.699219 72.074219 44.699219 L 100.195312 44.699219 L 100.195312 95.234375 C 100.195312 96.5625 101.265625 97.636719 102.59375 97.636719 C 103.917969 97.636719 104.992188 96.5625 104.992188 95.234375 L 104.992188 51.417969 L 125.324219 51.417969 C 136.285156 51.417969 145.203125 60.332031 145.203125 71.292969 L 145.203125 111.871094 L 139.101562 111.871094 C 137.949219 104.628906 131.664062 99.074219 124.101562 99.074219 C 116.539062 99.074219 110.253906 104.628906 109.101562 111.871094 L 104.992188 111.871094 L 104.992188 103.234375 C 104.992188 101.90625 103.917969 100.832031 102.59375 100.832031 C 101.265625 100.832031 100.195312 101.90625 100.195312 103.234375 L 100.195312 111.871094 L 74.734375 111.871094 C 73.582031 104.628906 67.292969 99.074219 59.734375 99.074219 C 52.171875 99.074219 45.882812 104.628906 44.730469 111.871094 L 39.742188 111.871094 L 39.742188 76.882812 C 39.742188 75.558594 38.667969 74.484375 37.34375 74.484375 C 36.015625 74.484375 34.945312 75.558594 34.945312 76.882812 L 34.945312 114.269531 C 34.945312 115.59375 36.015625 116.667969 37.34375 116.667969 L 44.730469 116.667969 C 45.882812 123.910156 52.171875 129.460938 59.730469 129.460938 C 67.292969 129.460938 73.578125 123.910156 74.734375 116.667969 L 109.097656 116.667969 C 110.253906 123.910156 116.539062 129.460938 124.101562 129.460938 C 131.660156 129.460938 137.949219 123.910156 139.101562 116.667969 L 147.601562 116.667969 C 148.925781 116.667969 150 115.59375 150 114.269531 L 150 71.292969 C 150 57.6875 138.929688 46.621094 125.324219 46.621094 Z M 59.730469 124.664062 C 54 124.664062 49.335938 120 49.335938 114.269531 C 49.335938 108.535156 54 103.875 59.730469 103.875 C 65.464844 103.875 70.128906 108.535156 70.128906 114.269531 C 70.128906 120 65.464844 124.664062 59.730469 124.664062 Z M 124.101562 124.664062 C 118.371094 124.664062 113.710938 120.003906 113.707031 114.273438 C 113.707031 114.269531 113.707031 114.269531 113.707031 114.269531 C 113.707031 114.265625 113.707031 114.265625 113.707031 114.265625 C 113.710938 108.535156 118.371094 103.875 124.101562 103.875 C 129.835938 103.875 134.496094 108.535156 134.496094 114.269531 C 134.496094 120 129.835938 124.664062 124.101562 124.664062 Z M 124.101562 124.664062 "/>
<path style=" stroke:none;fill-rule:nonzero;fill:rgb(0%,0%,0%);fill-opacity:1;" d="M 140.40625 71.292969 C 140.40625 62.980469 133.640625 56.214844 125.324219 56.214844 L 112.1875 56.214844 C 110.863281 56.214844 109.789062 57.289062 109.789062 58.613281 L 109.789062 81.164062 C 109.789062 82.488281 110.863281 83.5625 112.1875 83.5625 L 138.007812 83.5625 C 139.332031 83.5625 140.40625 82.488281 140.40625 81.164062 Z M 135.609375 78.765625 L 114.585938 78.765625 L 114.585938 61.011719 L 125.324219 61.011719 C 130.996094 61.011719 135.605469 65.625 135.605469 71.292969 L 135.605469 78.765625 Z M 135.609375 78.765625 "/>
<path style=" stroke:none;fill-rule:nonzero;fill:rgb(0%,0%,0%);fill-opacity:1;" d="M 59.730469 108.082031 C 56.320312 108.082031 53.546875 110.859375 53.546875 114.269531 C 53.546875 117.679688 56.320312 120.453125 59.730469 120.453125 C 63.140625 120.453125 65.917969 117.679688 65.917969 114.269531 C 65.917969 110.859375 63.140625 108.082031 59.730469 108.082031 Z M 59.730469 115.65625 C 58.96875 115.65625 58.34375 115.03125 58.34375 114.269531 C 58.34375 113.503906 58.96875 112.882812 59.730469 112.882812 C 60.496094 112.882812 61.117188 113.503906 61.117188 114.269531 C 61.117188 115.03125 60.496094 115.65625 59.730469 115.65625 Z M 59.730469 115.65625 "/>
<path style=" stroke:none;fill-rule:nonzero;fill:rgb(0%,0%,0%);fill-opacity:1;" d="M 124.101562 108.082031 C 120.691406 108.082031 117.917969 110.859375 117.917969 114.269531 C 117.917969 117.679688 120.691406 120.453125 124.101562 120.453125 C 127.511719 120.453125 130.285156 117.679688 130.285156 114.269531 C 130.285156 110.859375 127.511719 108.082031 124.101562 108.082031 Z M 124.101562 115.65625 C 123.335938 115.65625 122.714844 115.03125 122.714844 114.269531 C 122.714844 113.503906 123.335938 112.882812 124.101562 112.882812 C 124.867188 112.882812 125.488281 113.503906 125.488281 114.269531 C 125.488281 115.03125 124.867188 115.65625 124.101562 115.65625 Z M 124.101562 115.65625 "/>
<path style=" stroke:none;fill-rule:nonzero;fill:rgb(0%,0%,0%);fill-opacity:1;" d="M 138.007812 90.121094 C 136.679688 90.121094 135.609375 91.195312 135.609375 92.519531 L 135.609375 98.59375 C 135.609375 99.921875 136.679688 100.996094 138.007812 100.996094 C 139.332031 100.996094 140.40625 99.921875 140.40625 98.59375 L 140.40625 92.519531 C 140.40625 91.195312 139.332031 90.121094 138.007812 90.121094 Z M 138.007812 90.121094 "/>
<path style=" stroke:none;fill-rule:nonzero;fill:rgb(0%,0%,0%);fill-opacity:1;" d="M 41.246094 71.617188 C 55.328125 71.617188 66.785156 60.160156 66.785156 46.078125 C 66.785156 31.996094 55.328125 20.539062 41.246094 20.539062 C 38.007812 20.539062 34.855469 21.136719 31.867188 22.316406 C 30.636719 22.800781 30.03125 24.195312 30.519531 25.429688 C 31.003906 26.660156 32.398438 27.265625 33.632812 26.777344 C 36.054688 25.820312 38.613281 25.335938 41.246094 25.335938 C 52.679688 25.335938 61.984375 34.640625 61.984375 46.078125 C 61.984375 57.515625 52.679688 66.820312 41.246094 66.820312 C 29.808594 66.820312 20.503906 57.515625 20.503906 46.078125 C 20.503906 40.261719 22.96875 34.675781 27.269531 30.75 C 28.25 29.859375 28.320312 28.339844 27.425781 27.363281 C 26.53125 26.382812 25.015625 26.3125 24.035156 27.207031 C 18.742188 32.035156 15.707031 38.914062 15.707031 46.078125 C 15.707031 60.160156 27.164062 71.617188 41.246094 71.617188 Z M 41.246094 71.617188 "/>
<path style=" stroke:none;fill-rule:nonzero;fill:rgb(0%,0%,0%);fill-opacity:1;" d="M 41.246094 30.324219 C 39.917969 30.324219 38.847656 31.398438 38.847656 32.722656 L 38.847656 46.078125 C 38.847656 47.402344 39.917969 48.476562 41.246094 48.476562 L 47.167969 48.476562 C 48.496094 48.476562 49.570312 47.402344 49.570312 46.078125 C 49.570312 44.753906 48.496094 43.679688 47.167969 43.679688 L 43.644531 43.679688 L 43.644531 32.722656 C 43.644531 31.398438 42.570312 30.324219 41.246094 30.324219 Z M 41.246094 30.324219 "/>
</g>
</svg>
