<?xml version="1.0" encoding="UTF-8"?>
<svg xmlns="http://www.w3.org/2000/svg" xmlns:xlink="http://www.w3.org/1999/xlink" width="150px" height="px" viewBox="0 0 150 150" version="1.1">
<g id="surface1">
<path style=" stroke:none;fill-rule:nonzero;fill:rgb(82.745099%,85.09804%,85.09804%);fill-opacity:1;" d="M 120 21.035156 L 120 9.785156 C 120 4.953125 116.074219 1.023438 111.242188 1.023438 L 38.203125 1.023438 C 33.367188 1.023438 29.445312 4.953125 29.445312 9.785156 L 29.445312 21.035156 Z M 120 21.035156 "/>
<path style=" stroke:none;fill-rule:nonzero;fill:rgb(20%,20%,20%);fill-opacity:1;" d="M 87.039062 12.1875 L 62.375 12.1875 C 61.730469 12.1875 61.203125 11.660156 61.203125 11.015625 C 61.203125 10.371094 61.730469 9.84375 62.375 9.84375 L 87.039062 9.84375 C 87.6875 9.84375 88.210938 10.371094 88.210938 11.015625 C 88.210938 11.660156 87.6875 12.1875 87.039062 12.1875 Z M 87.039062 12.1875 "/>
<path style=" stroke:none;fill-rule:nonzero;fill:rgb(20%,20%,20%);fill-opacity:1;" d="M 94.132812 12.1875 L 92.3125 12.1875 C 91.671875 12.1875 91.140625 11.660156 91.140625 11.015625 C 91.140625 10.371094 91.671875 9.84375 92.3125 9.84375 L 94.132812 9.84375 C 94.773438 9.84375 95.304688 10.371094 95.304688 11.015625 C 95.304688 11.660156 94.773438 12.1875 94.132812 12.1875 Z M 94.132812 12.1875 "/>
<path style=" stroke:none;fill-rule:nonzero;fill:rgb(82.745099%,85.09804%,85.09804%);fill-opacity:1;" d="M 29.414062 128.671875 L 29.414062 139.921875 C 29.414062 144.757812 33.339844 148.679688 38.171875 148.679688 L 111.210938 148.679688 C 116.046875 148.679688 119.96875 144.757812 119.96875 139.921875 L 119.96875 128.671875 Z M 29.414062 128.671875 "/>
<path style=" stroke:none;fill-rule:nonzero;fill:rgb(90.980393%,91.764706%,91.764706%);fill-opacity:1;" d="M 47.050781 148.679688 L 38.171875 148.679688 C 33.339844 148.679688 29.414062 144.757812 29.414062 139.921875 L 29.414062 128.671875 L 38.289062 128.671875 L 38.289062 139.921875 C 38.289062 144.757812 42.21875 148.679688 47.050781 148.679688 Z M 47.050781 148.679688 "/>
<path style=" stroke:none;fill-rule:nonzero;fill:rgb(65.882355%,69.803923%,70.588237%);fill-opacity:1;" d="M 120 128.671875 L 120 139.921875 C 120 144.757812 116.074219 148.679688 111.242188 148.679688 L 102.363281 148.679688 C 107.199219 148.679688 111.152344 144.757812 111.152344 139.921875 L 111.152344 128.671875 Z M 120 128.671875 "/>
<path style=" stroke:none;fill-rule:nonzero;fill:rgb(90.980393%,91.764706%,91.764706%);fill-opacity:1;" d="M 47.078125 1.023438 C 42.246094 1.023438 38.320312 4.953125 38.320312 9.785156 L 38.320312 21.035156 L 29.441406 21.035156 L 29.441406 9.785156 C 29.441406 4.953125 33.367188 1.023438 38.203125 1.023438 Z M 47.078125 1.023438 "/>
<path style=" stroke:none;fill-rule:nonzero;fill:rgb(65.882355%,69.803923%,70.588237%);fill-opacity:1;" d="M 120 9.785156 L 120 21.035156 L 111.125 21.035156 L 111.125 9.785156 C 111.125 4.953125 107.199219 1.023438 102.363281 1.023438 L 111.242188 1.023438 C 116.074219 1.023438 120 4.953125 120 9.785156 Z M 120 9.785156 "/>
<path style=" stroke:none;fill-rule:nonzero;fill:rgb(20%,20%,20%);fill-opacity:1;" d="M 81.503906 138.691406 C 81.503906 142.441406 78.457031 145.488281 74.707031 145.488281 C 70.957031 145.488281 67.910156 142.441406 67.910156 138.691406 C 67.910156 134.941406 70.957031 131.894531 74.707031 131.894531 C 78.457031 131.894531 81.503906 134.914062 81.503906 138.691406 Z M 81.503906 138.691406 "/>
<path style=" stroke:none;fill-rule:nonzero;fill:rgb(82.745099%,94.117647%,99.215686%);fill-opacity:1;" d="M 29.414062 21.945312 L 119.972656 21.945312 L 119.972656 129.609375 L 29.414062 129.609375 Z M 29.414062 21.945312 "/>
<path style=" stroke:none;fill-rule:nonzero;fill:rgb(82.745099%,94.117647%,99.215686%);fill-opacity:1;" d="M 37.617188 31.320312 L 111.765625 31.320312 L 111.765625 121.40625 L 37.617188 121.40625 Z M 37.617188 31.320312 "/>
<path style=" stroke:none;fill-rule:nonzero;fill:rgb(20%,20%,20%);fill-opacity:1;" d="M 121.171875 9.785156 C 121.171875 4.304688 116.71875 -0.148438 111.242188 -0.148438 L 38.203125 -0.148438 C 32.726562 -0.148438 28.273438 4.304688 28.273438 9.785156 L 28.273438 139.921875 C 28.273438 145.398438 32.726562 149.851562 38.203125 149.851562 L 111.242188 149.851562 C 116.71875 149.851562 121.171875 145.398438 121.171875 139.921875 Z M 30.585938 127.5 L 30.585938 22.207031 L 118.796875 22.207031 L 118.796875 127.53125 L 30.585938 127.53125 Z M 38.203125 2.195312 L 111.242188 2.195312 C 115.429688 2.195312 118.828125 5.59375 118.828125 9.785156 L 118.828125 19.863281 L 30.585938 19.863281 L 30.585938 9.785156 C 30.585938 5.59375 34.015625 2.195312 38.203125 2.195312 Z M 111.210938 147.507812 L 38.171875 147.507812 C 33.984375 147.507812 30.585938 144.109375 30.585938 139.921875 L 30.585938 129.84375 L 118.796875 129.84375 L 118.796875 139.921875 C 118.828125 144.109375 115.398438 147.507812 111.210938 147.507812 Z M 111.210938 147.507812 "/>
<path style=" stroke:none;fill-rule:nonzero;fill:rgb(48.235294%,87.058824%,61.960787%);fill-opacity:1;" d="M 106.203125 106.375 L 106.203125 115.75 C 106.203125 118.210938 104.210938 120.234375 101.75 120.234375 L 47.664062 120.234375 C 45.203125 120.234375 43.183594 118.242188 43.183594 115.75 L 43.183594 106.375 C 43.183594 103.917969 45.175781 101.925781 47.664062 101.925781 L 101.746094 101.925781 C 104.210938 101.921875 106.203125 103.914062 106.203125 106.375 Z M 106.203125 106.375 "/>
<path style=" stroke:none;fill-rule:nonzero;fill:rgb(20%,20%,20%);fill-opacity:1;" d="M 101.75 121.40625 L 47.664062 121.40625 C 44.5625 121.40625 42.011719 118.886719 42.011719 115.75 L 42.011719 106.375 C 42.011719 103.269531 44.53125 100.75 47.664062 100.75 L 101.746094 100.75 C 104.851562 100.75 107.371094 103.273438 107.371094 106.375 L 107.371094 115.75 C 107.375 118.886719 104.851562 121.40625 101.75 121.40625 Z M 47.664062 103.09375 C 45.851562 103.09375 44.355469 104.5625 44.355469 106.375 L 44.355469 115.75 C 44.355469 117.566406 45.847656 119.0625 47.664062 119.0625 L 101.746094 119.0625 C 103.5625 119.0625 105.027344 117.566406 105.027344 115.75 L 105.027344 106.375 C 105.027344 104.5625 103.5625 103.09375 101.746094 103.09375 Z M 47.664062 103.09375 "/>
<path style=" stroke:none;fill-rule:nonzero;fill:rgb(65.882355%,69.411767%,70.19608%);fill-opacity:1;" d="M 95.390625 88.242188 C 95.390625 90.617188 93.457031 92.546875 91.085938 92.546875 C 88.710938 92.546875 86.777344 90.613281 86.777344 88.242188 C 86.777344 85.867188 88.710938 83.9375 91.085938 83.9375 C 93.457031 83.90625 95.390625 85.839844 95.390625 88.242188 Z M 95.390625 88.242188 "/>
<path style=" stroke:none;fill-rule:nonzero;fill:rgb(65.882355%,69.411767%,70.19608%);fill-opacity:1;" d="M 69.199219 88.242188 C 69.199219 90.617188 67.265625 92.546875 64.890625 92.546875 C 62.519531 92.546875 60.585938 90.613281 60.585938 88.242188 C 60.585938 85.867188 62.519531 83.9375 64.890625 83.9375 C 67.265625 83.90625 69.199219 85.839844 69.199219 88.242188 Z M 69.199219 88.242188 "/>
<path style=" stroke:none;fill-rule:nonzero;fill:rgb(48.627451%,54.509807%,55.29412%);fill-opacity:1;" d="M 95.390625 88.242188 C 95.390625 90.617188 93.457031 92.546875 91.085938 92.546875 C 89.328125 92.546875 87.804688 91.492188 87.128906 90 C 87.65625 90.234375 88.273438 90.382812 88.886719 90.382812 C 91.261719 90.382812 93.195312 88.445312 93.195312 86.074219 C 93.195312 85.460938 93.046875 84.84375 92.8125 84.316406 C 94.335938 84.960938 95.390625 86.484375 95.390625 88.242188 Z M 95.390625 88.242188 "/>
<path style=" stroke:none;fill-rule:nonzero;fill:rgb(48.627451%,54.509807%,55.29412%);fill-opacity:1;" d="M 69.199219 88.242188 C 69.199219 90.617188 67.265625 92.546875 64.890625 92.546875 C 63.132812 92.546875 61.609375 91.492188 60.9375 90 C 61.464844 90.234375 62.078125 90.382812 62.695312 90.382812 C 65.070312 90.382812 67 88.445312 67 86.074219 C 67 85.460938 66.855469 84.84375 66.621094 84.316406 C 68.144531 84.960938 69.199219 86.484375 69.199219 88.242188 Z M 69.199219 88.242188 "/>
<path style=" stroke:none;fill-rule:nonzero;fill:rgb(98.431373%,54.11765%,54.11765%);fill-opacity:1;" d="M 106.789062 48.046875 L 101.164062 71.867188 C 100.867188 73.039062 99.84375 73.886719 98.613281 73.886719 L 60.265625 73.886719 C 58.886719 73.886719 57.625 74.445312 56.71875 75.351562 C 56.398438 75.675781 56.132812 76.027344 55.898438 76.40625 L 61.171875 44.824219 L 104.238281 44.824219 C 105.9375 44.824219 107.167969 46.40625 106.789062 48.046875 Z M 106.789062 48.046875 "/>
<path style=" stroke:none;fill-rule:nonzero;fill:rgb(98.823529%,69.411767%,69.411767%);fill-opacity:1;" d="M 67.324219 44.824219 L 62.460938 73.859375 L 60.234375 73.859375 C 58.859375 73.859375 57.597656 74.414062 56.691406 75.320312 C 56.367188 75.644531 56.105469 75.996094 55.871094 76.378906 L 61.144531 44.796875 L 67.324219 44.796875 Z M 67.324219 44.824219 "/>
<path style=" stroke:none;fill-rule:nonzero;fill:rgb(97.647059%,38.82353%,38.82353%);fill-opacity:1;" d="M 106.789062 48.046875 L 101.164062 71.867188 C 100.867188 73.039062 99.84375 73.886719 98.613281 73.886719 L 92.460938 73.886719 C 93.664062 73.886719 94.71875 73.066406 95.007812 71.867188 L 100.632812 48.046875 C 101.015625 46.40625 99.785156 44.824219 98.085938 44.824219 L 104.238281 44.824219 C 105.9375 44.824219 107.167969 46.40625 106.789062 48.046875 Z M 106.789062 48.046875 "/>
<path style=" stroke:none;fill-rule:nonzero;fill:rgb(20%,20%,20%);fill-opacity:1;" d="M 107.226562 45.085938 C 106.492188 44.179688 105.410156 43.652344 104.265625 43.652344 L 62.578125 43.652344 L 63.75 36.5625 C 64.015625 34.953125 63.574219 33.339844 62.519531 32.109375 C 61.464844 30.878906 59.941406 30.175781 58.328125 30.175781 L 50.476562 30.175781 C 49.835938 30.175781 49.304688 30.703125 49.304688 31.347656 C 49.304688 31.992188 49.835938 32.519531 50.476562 32.519531 L 58.328125 32.519531 C 59.265625 32.519531 60.144531 32.929688 60.730469 33.632812 C 61.316406 34.335938 61.582031 35.273438 61.4375 36.179688 L 54.753906 76.113281 C 54.316406 76.960938 54.050781 77.902344 54.050781 78.898438 C 54.050781 82.324219 56.835938 85.078125 60.234375 85.078125 L 60.378906 85.078125 C 59.765625 85.957031 59.382812 87.039062 59.382812 88.210938 C 59.382812 91.230469 61.84375 93.691406 64.863281 93.691406 C 67.878906 93.691406 70.339844 91.230469 70.339844 88.210938 C 70.339844 87.039062 69.960938 85.957031 69.34375 85.078125 L 86.570312 85.078125 C 85.957031 85.957031 85.574219 87.039062 85.574219 88.210938 C 85.574219 91.230469 88.035156 93.691406 91.054688 93.691406 C 94.070312 93.691406 96.53125 91.230469 96.53125 88.210938 C 96.53125 85.195312 94.070312 82.734375 91.054688 82.734375 L 60.265625 82.734375 C 58.15625 82.734375 56.425781 81.007812 56.425781 78.898438 C 56.425781 76.785156 58.15625 75.058594 60.265625 75.058594 L 98.613281 75.058594 C 100.371094 75.058594 101.894531 73.859375 102.304688 72.15625 L 107.929688 48.339844 C 108.195312 47.167969 107.929688 45.996094 107.226562 45.085938 Z M 91.085938 85.078125 C 92.8125 85.078125 94.21875 86.484375 94.21875 88.210938 C 94.21875 89.941406 92.8125 91.347656 91.085938 91.347656 C 89.355469 91.347656 87.949219 89.941406 87.949219 88.210938 C 87.921875 86.484375 89.355469 85.078125 91.085938 85.078125 Z M 64.890625 85.078125 C 66.621094 85.078125 68.027344 86.484375 68.027344 88.210938 C 68.027344 89.941406 66.621094 91.347656 64.890625 91.347656 C 63.164062 91.347656 61.757812 89.941406 61.757812 88.210938 C 61.726562 86.484375 63.164062 85.078125 64.890625 85.078125 Z M 105.644531 47.753906 L 100.019531 71.570312 C 99.875 72.21875 99.289062 72.6875 98.613281 72.6875 L 60.265625 72.6875 C 59.328125 72.6875 58.445312 72.890625 57.625 73.273438 L 62.195312 45.96875 L 104.265625 45.96875 C 104.707031 45.96875 105.117188 46.171875 105.382812 46.523438 C 105.644531 46.875 105.761719 47.34375 105.644531 47.753906 Z M 105.644531 47.753906 "/>
<path style=" stroke:none;fill-rule:nonzero;fill:rgb(20%,20%,20%);fill-opacity:1;" d="M 48.867188 74.707031 L 42.539062 74.707031 C 41.894531 74.707031 41.367188 74.179688 41.367188 73.535156 C 41.367188 72.890625 41.894531 72.363281 42.539062 72.363281 L 48.867188 72.363281 C 49.511719 72.363281 50.039062 72.890625 50.039062 73.535156 C 50.039062 74.179688 49.511719 74.707031 48.867188 74.707031 Z M 48.867188 74.707031 "/>
<path style=" stroke:none;fill-rule:nonzero;fill:rgb(20%,20%,20%);fill-opacity:1;" d="M 50.890625 69.84375 L 42.539062 69.84375 C 41.894531 69.84375 41.367188 69.316406 41.367188 68.671875 C 41.367188 68.027344 41.894531 67.5 42.539062 67.5 L 50.890625 67.5 C 51.53125 67.5 52.0625 68.027344 52.0625 68.671875 C 52.0625 69.316406 51.53125 69.84375 50.890625 69.84375 Z M 50.890625 69.84375 "/>
<path style=" stroke:none;fill-rule:nonzero;fill:rgb(20%,20%,20%);fill-opacity:1;" d="M 52.910156 64.953125 L 42.570312 64.953125 C 41.925781 64.953125 41.398438 64.421875 41.398438 63.78125 C 41.398438 63.132812 41.925781 62.609375 42.570312 62.609375 L 52.910156 62.609375 C 53.554688 62.609375 54.082031 63.132812 54.082031 63.78125 C 54.082031 64.421875 53.554688 64.953125 52.910156 64.953125 Z M 52.910156 64.953125 "/>
<path style=" stroke:none;fill-rule:nonzero;fill:rgb(20%,20%,20%);fill-opacity:1;" d="M 54.902344 60.085938 L 42.539062 60.085938 C 41.894531 60.085938 41.367188 59.558594 41.367188 58.914062 C 41.367188 58.273438 41.894531 57.742188 42.539062 57.742188 L 54.902344 57.742188 C 55.546875 57.742188 56.074219 58.273438 56.074219 58.914062 C 56.074219 59.558594 55.546875 60.085938 54.902344 60.085938 Z M 54.902344 60.085938 "/>
</g>
</svg>
