<?xml version="1.0" encoding="UTF-8"?>
<svg xmlns="http://www.w3.org/2000/svg" xmlns:xlink="http://www.w3.org/1999/xlink" width="150px" height="150px" viewBox="0 0 150 150" version="1.1">
<g id="surface1">
<path style=" stroke:none;fill-rule:nonzero;fill:rgb(99.215686%,89.803922%,63.529414%);fill-opacity:1;" d="M 145.128906 57.402344 C 145.128906 53.257812 141.769531 49.894531 137.621094 49.894531 C 133.476562 49.894531 130.113281 53.257812 130.113281 57.402344 C 130.113281 61.550781 133.476562 64.910156 137.621094 64.910156 C 141.769531 64.910156 145.128906 61.550781 145.128906 57.402344 Z M 145.128906 57.402344 "/>
<path style=" stroke:none;fill-rule:nonzero;fill:rgb(99.215686%,89.803922%,63.529414%);fill-opacity:1;" d="M 75.054688 57.402344 C 75.054688 53.257812 71.695312 49.894531 67.546875 49.894531 C 63.402344 49.894531 60.039062 53.257812 60.039062 57.402344 C 60.039062 61.550781 63.402344 64.910156 67.546875 64.910156 C 71.695312 64.910156 75.054688 61.550781 75.054688 57.402344 Z M 75.054688 57.402344 "/>
<path style=" stroke:none;fill-rule:nonzero;fill:rgb(99.215686%,89.803922%,63.529414%);fill-opacity:1;" d="M 137.621094 44.890625 C 137.621094 25.539062 121.933594 9.855469 102.585938 9.855469 C 83.234375 9.855469 67.546875 25.539062 67.546875 44.890625 C 67.546875 64.242188 83.234375 79.925781 102.585938 79.925781 C 121.933594 79.925781 137.621094 64.242188 137.621094 44.890625 Z M 137.621094 44.890625 "/>
<path style=" stroke:none;fill-rule:nonzero;fill:rgb(99.215686%,86.666667%,52.156866%);fill-opacity:1;" d="M 77.558594 44.890625 C 77.558594 27.238281 90.613281 12.640625 107.589844 10.210938 C 105.933594 9.972656 104.261719 9.855469 102.585938 9.855469 C 83.234375 9.855469 67.550781 25.539062 67.550781 44.890625 C 67.550781 64.242188 83.234375 79.925781 102.585938 79.925781 C 104.285156 79.925781 105.957031 79.804688 107.589844 79.570312 C 90.613281 77.140625 77.558594 62.542969 77.558594 44.890625 "/>
<path style=" stroke:none;fill-rule:nonzero;fill:rgb(99.215686%,81.568629%,25.882354%);fill-opacity:1;" d="M 145.128906 147.496094 L 60.039062 147.496094 L 60.039062 102.449219 C 60.039062 94.15625 66.761719 87.433594 75.054688 87.433594 L 130.113281 87.433594 C 138.40625 87.433594 145.128906 94.15625 145.128906 102.449219 Z M 145.128906 147.496094 "/>
<path style=" stroke:none;fill-rule:nonzero;fill:rgb(94.901961%,75.686276%,15.294118%);fill-opacity:1;" d="M 82.5625 87.433594 L 75.054688 87.433594 C 66.761719 87.433594 60.039062 94.15625 60.039062 102.449219 L 60.039062 147.496094 L 67.546875 147.496094 L 67.546875 102.449219 C 67.546875 94.15625 74.273438 87.433594 82.5625 87.433594 "/>
<path style=" stroke:none;fill-rule:nonzero;fill:rgb(99.215686%,89.803922%,63.529414%);fill-opacity:1;" d="M 95.078125 79.925781 L 110.09375 79.925781 L 110.09375 87.433594 L 95.078125 87.433594 Z M 95.078125 79.925781 "/>
<path style=" stroke:none;fill-rule:nonzero;fill:rgb(99.215686%,89.803922%,63.529414%);fill-opacity:1;" d="M 110.09375 97.445312 L 102.585938 102.449219 L 95.078125 97.445312 L 95.078125 87.433594 L 110.09375 87.433594 Z M 110.09375 97.445312 "/>
<path style=" stroke:none;fill-rule:nonzero;fill:rgb(100%,100%,100%);fill-opacity:1;" d="M 122.605469 107.457031 L 110.09375 97.445312 L 110.09375 87.433594 L 122.605469 87.433594 Z M 82.5625 107.457031 L 95.078125 97.445312 L 95.078125 87.433594 L 82.5625 87.433594 Z M 82.5625 107.457031 "/>
<path style=" stroke:none;fill-rule:nonzero;fill:rgb(81.176472%,26.666668%,16.862746%);fill-opacity:1;" d="M 147.632812 12.355469 C 147.632812 6.828125 143.148438 2.347656 137.621094 2.347656 C 132.09375 2.347656 127.609375 6.828125 127.609375 12.355469 C 127.609375 17.886719 132.09375 22.367188 137.621094 22.367188 C 143.148438 22.367188 147.632812 17.886719 147.632812 12.355469 Z M 147.632812 12.355469 "/>
<path style=" stroke:none;fill-rule:nonzero;fill:rgb(89.803922%,33.725491%,23.529412%);fill-opacity:1;" d="M 102.585938 2.347656 C 80.472656 2.347656 62.542969 20.273438 62.542969 42.386719 L 62.542969 49.894531 L 72.554688 69.917969 L 72.554688 49.894531 L 132.617188 49.894531 L 132.617188 69.917969 L 142.625 49.894531 L 142.625 42.386719 C 142.625 20.273438 124.699219 2.347656 102.585938 2.347656 "/>
<path style=" stroke:none;fill-rule:nonzero;fill:rgb(81.176472%,26.666668%,16.862746%);fill-opacity:1;" d="M 72.554688 42.386719 C 72.554688 21.96875 87.839844 5.121094 107.589844 2.65625 C 105.929688 2.449219 104.257812 2.347656 102.585938 2.347656 C 80.472656 2.347656 62.542969 20.273438 62.542969 42.386719 L 62.542969 49.894531 L 72.554688 69.917969 L 72.554688 42.386719 "/>
<path style=" stroke:none;fill-rule:nonzero;fill:rgb(92.156863%,92.156863%,92.54902%);fill-opacity:1;" d="M 57.539062 27.371094 C 57.539062 13.550781 45.214844 2.347656 30.007812 2.347656 C 14.804688 2.347656 2.480469 13.550781 2.480469 27.371094 C 2.480469 41.195312 14.804688 52.398438 30.007812 52.398438 C 30.246094 52.398438 30.480469 52.394531 30.714844 52.390625 L 45.023438 64.910156 L 45.023438 48.347656 C 52.558594 43.882812 57.539062 36.15625 57.539062 27.371094 "/>
<path style=" stroke:none;fill-rule:nonzero;fill:rgb(84.313726%,84.705883%,85.09804%);fill-opacity:1;" d="M 9.988281 28.625 C 9.988281 15.3125 20.359375 4.3125 33.808594 2.585938 C 32.546875 2.425781 31.28125 2.347656 30.007812 2.347656 C 14.804688 2.347656 2.480469 13.550781 2.480469 27.371094 C 2.480469 39.589844 12.113281 49.761719 24.847656 51.957031 C 16.019531 47.582031 9.988281 38.773438 9.988281 28.625 "/>
<path style=" stroke:none;fill-rule:nonzero;fill:rgb(45.490196%,45.882353%,48.235294%);fill-opacity:1;" d="M 77.558594 139.988281 L 9.988281 139.988281 L 2.480469 104.953125 L 70.050781 104.953125 Z M 77.558594 139.988281 "/>
<path style=" stroke:none;fill-rule:nonzero;fill:rgb(76.47059%,76.862746%,77.64706%);fill-opacity:1;" d="M 9.988281 139.988281 L 102.585938 139.988281 L 102.585938 147.496094 L 9.988281 147.496094 Z M 9.988281 139.988281 "/>
<path style=" stroke:none;fill-rule:nonzero;fill:rgb(37.64706%,38.431373%,40.784314%);fill-opacity:1;" d="M 2.480469 104.953125 L 9.988281 139.988281 L 17.496094 139.988281 L 9.988281 104.953125 Z M 2.480469 104.953125 "/>
<path style=" stroke:none;fill-rule:nonzero;fill:rgb(68.627453%,69.01961%,70.588237%);fill-opacity:1;" d="M 9.988281 139.988281 L 17.496094 139.988281 L 17.496094 147.496094 L 9.988281 147.496094 Z M 9.988281 139.988281 "/>
<path style=" stroke:none;fill-rule:nonzero;fill:rgb(99.215686%,86.666667%,52.156866%);fill-opacity:1;" d="M 45.023438 122.472656 C 45.023438 119.707031 42.785156 117.464844 40.019531 117.464844 C 37.253906 117.464844 35.015625 119.707031 35.015625 122.472656 C 35.015625 125.234375 37.253906 127.476562 40.019531 127.476562 C 42.785156 127.476562 45.023438 125.234375 45.023438 122.472656 Z M 45.023438 122.472656 "/>
<path style=" stroke:none;fill-rule:nonzero;fill:rgb(0%,0%,0%);fill-opacity:1;" d="M 130.199219 70 C 130.234375 71.007812 130.976562 71.910156 131.953125 72.179688 C 133.019531 72.472656 134.199219 71.957031 134.695312 70.964844 L 136.585938 67.203125 C 136.925781 67.238281 137.273438 67.257812 137.617188 67.257812 C 143.050781 67.257812 147.472656 62.835938 147.472656 57.402344 C 147.472656 54.90625 146.441406 52.507812 144.753906 50.691406 C 144.847656 50.4375 144.816406 50.167969 144.816406 49.894531 L 144.816406 42.386719 C 144.816406 35.910156 143.433594 29.765625 140.820312 24.269531 C 146.046875 22.828125 149.941406 18.035156 149.941406 12.355469 C 149.9375 5.542969 144.414062 0 137.601562 0 C 132.667969 0 128.292969 2.917969 126.332031 7.300781 C 119.550781 2.695312 111.300781 0 102.503906 0 C 79.128906 0 60.039062 19.015625 60.039062 42.386719 L 60.039062 49.894531 C 60.039062 50.167969 60.167969 50.4375 60.257812 50.691406 C 58.570312 52.507812 57.65625 54.90625 57.65625 57.402344 C 57.65625 62.835938 62.09375 67.257812 67.53125 67.257812 C 67.871094 67.257812 68.222656 67.238281 68.5625 67.203125 L 70.449219 70.964844 C 70.9375 71.9375 72.03125 72.449219 73.089844 72.199219 C 74.121094 71.957031 74.773438 71.054688 74.8125 70.007812 C 79.617188 75.316406 86.003906 79.097656 92.574219 80.957031 L 92.574219 85.246094 L 75.054688 85.246094 C 65.484375 85.246094 57.539062 92.878906 57.539062 102.449219 L 57.539062 102.761719 L 22.503906 102.761719 C 21.207031 102.761719 20.15625 103.8125 20.15625 105.109375 C 20.15625 106.40625 21.207031 107.457031 22.503906 107.457031 L 68.15625 107.457031 L 74.65625 137.800781 L 11.886719 137.800781 L 5.382812 107.457031 L 12.804688 107.457031 C 14.101562 107.457031 15.152344 106.40625 15.152344 105.109375 C 15.152344 103.8125 14.101562 102.761719 12.804688 102.761719 L 2.480469 102.761719 C 1.011719 102.761719 -0.199219 104.085938 0.109375 105.523438 L 7.484375 140.238281 L 7.484375 147.496094 C 7.484375 148.792969 8.691406 150 9.988281 150 L 145.128906 150 C 146.425781 150 147.320312 148.792969 147.320312 147.496094 L 147.320312 117.464844 C 147.320312 116.171875 146.269531 115.121094 144.972656 115.121094 C 143.675781 115.121094 142.628906 116.171875 142.628906 117.464844 L 142.628906 145.308594 L 104.773438 145.308594 L 104.773438 139.988281 C 104.773438 138.695312 103.882812 137.800781 102.585938 137.800781 L 79.457031 137.800781 L 72.34375 104.617188 C 72.113281 103.535156 71.15625 102.761719 70.050781 102.761719 L 62.230469 102.761719 L 62.230469 102.449219 C 62.230469 95.464844 68.070312 89.9375 75.058594 89.9375 L 80.0625 89.9375 L 80.0625 107.457031 C 80.0625 109.378906 82.441406 110.496094 83.953125 109.289062 L 95.164062 100.347656 L 101.265625 104.402344 C 102.042969 104.921875 103.097656 104.921875 103.878906 104.402344 L 109.960938 100.347656 L 121.058594 109.289062 C 122.570312 110.496094 124.796875 109.378906 124.796875 107.457031 L 124.796875 89.9375 L 130.113281 89.9375 C 137.101562 89.9375 142.625 95.464844 142.625 102.449219 L 142.625 107.457031 C 142.625 108.75 143.675781 109.800781 144.972656 109.800781 C 146.269531 109.800781 147.320312 108.75 147.320312 107.457031 L 147.320312 102.449219 C 147.320312 92.878906 139.6875 85.246094 130.113281 85.246094 L 112.28125 85.246094 L 112.28125 80.949219 C 119.164062 79.085938 125.390625 75.300781 130.199219 70 M 100.082031 145.308594 L 12.179688 145.308594 L 12.179688 142.492188 L 100.082031 142.492188 Z M 139.011719 62.371094 L 142.425781 55.542969 C 142.65625 56.128906 142.785156 56.757812 142.785156 57.402344 C 142.785156 59.765625 141.183594 61.757812 139.011719 62.371094 M 137.621094 4.691406 C 141.847656 4.691406 145.285156 8.128906 145.285156 12.355469 C 145.285156 16.273438 142.335938 19.507812 138.539062 19.964844 C 136.273438 16.34375 133.476562 13.082031 130.242188 10.292969 C 131.164062 6.980469 134.183594 4.691406 137.621094 4.691406 M 64.734375 42.386719 C 64.734375 21.601562 81.644531 4.691406 102.429688 4.691406 C 123.214844 4.691406 140.125 21.601562 140.125 42.386719 L 140.125 49.339844 L 134.804688 59.976562 L 134.804688 49.894531 C 134.804688 48.601562 133.914062 47.707031 132.617188 47.707031 L 117.289062 47.707031 L 117.289062 39.886719 C 117.289062 38.589844 116.238281 37.539062 114.941406 37.539062 C 113.644531 37.539062 112.59375 38.589844 112.597656 39.886719 L 112.597656 47.707031 L 104.773438 47.707031 L 104.773438 32.378906 C 104.777344 31.082031 103.726562 30.03125 102.429688 30.03125 C 101.132812 30.03125 100.082031 31.082031 100.082031 32.378906 L 100.082031 47.707031 L 92.261719 47.707031 L 92.261719 39.886719 C 92.261719 38.589844 91.210938 37.539062 89.917969 37.539062 C 88.621094 37.539062 87.570312 38.589844 87.570312 39.886719 L 87.570312 47.707031 L 72.554688 47.707031 C 71.257812 47.707031 70.050781 48.601562 70.050781 49.894531 L 70.050781 59.976562 L 64.734375 49.339844 Z M 62.386719 57.402344 C 62.386719 56.757812 62.515625 56.128906 62.742188 55.539062 L 66.15625 62.367188 C 63.984375 61.757812 62.386719 59.765625 62.386719 57.402344 M 75.050781 62.640625 C 74.980469 62.535156 75.054688 62.4375 74.742188 62.347656 L 74.742188 52.398438 L 130.113281 52.398438 L 130.113281 62.574219 C 130.113281 62.734375 129.777344 62.929688 129.617188 63.167969 C 123.519531 72.191406 113.382812 77.582031 102.507812 77.582031 C 91.375 77.582031 81.113281 71.996094 75.050781 62.640625 M 84.753906 89.9375 L 92.574219 89.9375 L 92.574219 96.316406 L 84.753906 102.574219 Z M 120.101562 102.574219 L 112.28125 96.316406 L 112.28125 89.9375 L 120.101562 89.9375 Z M 107.589844 82.429688 L 107.589844 96.191406 L 102.429688 99.628906 L 97.265625 96.191406 L 97.265625 82.429688 Z M 107.589844 82.429688 "/>
<path style=" stroke:none;fill-rule:nonzero;fill:rgb(0%,0%,0%);fill-opacity:1;" d="M 104.882812 109.5 C 104.5 107.480469 101.765625 106.96875 100.632812 108.65625 C 100.039062 109.539062 100.140625 110.746094 100.84375 111.535156 C 101.527344 112.292969 102.667969 112.511719 103.585938 112.078125 C 104.546875 111.628906 105.097656 110.539062 104.882812 109.5 M 104.242188 118.3125 C 102.820312 116.84375 100.285156 117.921875 100.238281 119.921875 C 100.21875 120.9375 100.882812 121.878906 101.847656 122.195312 C 102.828125 122.515625 103.917969 122.152344 104.511719 121.308594 C 105.152344 120.390625 105.035156 119.097656 104.242188 118.3125 M 104.753906 129.082031 C 104.363281 128.160156 103.414062 127.5625 102.414062 127.640625 C 101.433594 127.714844 100.585938 128.40625 100.324219 129.351562 C 100.058594 130.320312 100.449219 131.375 101.285156 131.929688 C 102.085938 132.464844 103.164062 132.445312 103.949219 131.886719 C 104.832031 131.257812 105.152344 130.085938 104.753906 129.082031 M 111.5 66.789062 C 112.511719 66.003906 112.707031 64.550781 111.9375 63.527344 C 111.171875 62.503906 109.722656 62.285156 108.6875 63.035156 C 107.671875 63.792969 105.53125 65.066406 102.585938 65.066406 C 101.320312 65.066406 98.84375 64.804688 96.484375 63.035156 C 95.449219 62.285156 94.003906 62.507812 93.234375 63.53125 C 92.46875 64.554688 92.660156 66.003906 93.667969 66.789062 C 97.117188 69.375 100.734375 69.761719 102.585938 69.761719 C 106.894531 69.761719 110.019531 67.898438 111.5 66.789062 M 89.738281 54.003906 C 88.9375 52.101562 86.125 52.117188 85.382812 54.058594 C 84.613281 56.066406 86.84375 58.003906 88.726562 56.941406 C 89.75 56.363281 90.171875 55.089844 89.738281 54.003906 M 117.601562 57.246094 C 119.757812 57.246094 120.757812 54.445312 119.078125 53.082031 C 117.40625 51.722656 114.855469 53.261719 115.304688 55.382812 C 115.53125 56.453125 116.503906 57.246094 117.601562 57.246094 M 29.84375 54.746094 L 43.402344 66.675781 C 44.890625 67.980469 47.214844 66.882812 47.214844 64.910156 L 47.214844 49.652344 C 55.347656 44.507812 59.804688 36.273438 59.804688 27.371094 C 59.804688 12.277344 46.445312 0 29.96875 0 C 13.496094 0 0.113281 12.277344 0.113281 27.371094 C 0.113281 42.414062 13.445312 54.660156 29.84375 54.746094 M 30.007812 4.691406 C 43.894531 4.691406 55.191406 14.867188 55.191406 27.371094 C 55.191406 35.027344 50.867188 42.113281 43.75 46.332031 C 43.039062 46.753906 42.523438 47.519531 42.523438 48.347656 L 42.523438 59.742188 L 32.183594 50.625 C 31.519531 50.042969 30.800781 50.050781 29.96875 50.050781 C 16.085938 50.050781 4.808594 39.878906 4.808594 27.371094 C 4.808594 14.867188 16.125 4.691406 30.007812 4.691406 "/>
<path style=" stroke:none;fill-rule:nonzero;fill:rgb(0%,0%,0%);fill-opacity:1;" d="M 29.851562 42.230469 C 31.148438 42.230469 32.199219 41.179688 32.199219 39.886719 L 32.199219 24.871094 C 32.199219 23.574219 31.148438 22.523438 29.851562 22.523438 C 28.558594 22.523438 27.507812 23.574219 27.507812 24.871094 L 27.507812 39.886719 C 27.507812 41.179688 28.558594 42.230469 29.851562 42.230469 M 29.851562 20.019531 C 31.148438 20.019531 32.199219 18.96875 32.199219 17.675781 L 32.199219 17.363281 C 32.199219 16.066406 31.148438 15.015625 29.851562 15.015625 C 28.558594 15.015625 27.507812 16.066406 27.507812 17.363281 L 27.507812 17.675781 C 27.507812 18.96875 28.558594 20.019531 29.851562 20.019531 M 47.371094 122.472656 C 47.371094 118.417969 44.074219 115.121094 40.019531 115.121094 C 35.964844 115.121094 32.667969 118.417969 32.667969 122.472656 C 32.667969 126.523438 35.964844 129.824219 40.019531 129.824219 C 44.074219 129.824219 47.371094 126.523438 47.371094 122.472656 M 37.359375 122.472656 C 37.359375 121.003906 38.554688 119.8125 40.019531 119.8125 C 41.484375 119.8125 42.679688 121.003906 42.679688 122.472656 C 42.679688 123.9375 41.484375 125.128906 40.019531 125.128906 C 38.554688 125.128906 37.359375 123.9375 37.359375 122.472656 M 60.039062 124.972656 C 61.335938 124.972656 62.386719 123.921875 62.386719 122.628906 C 62.386719 121.332031 61.335938 120.28125 60.039062 120.28125 L 55.035156 120.28125 C 53.738281 120.28125 52.6875 121.332031 52.691406 122.628906 C 52.6875 123.921875 53.738281 124.972656 55.035156 124.972656 Z M 20 124.972656 L 25.003906 124.972656 C 26.300781 124.972656 27.351562 123.921875 27.351562 122.628906 C 27.351562 121.332031 26.300781 120.28125 25.003906 120.28125 L 20 120.28125 C 18.703125 120.28125 17.652344 121.332031 17.652344 122.628906 C 17.652344 123.921875 18.703125 124.972656 20 124.972656 "/>
</g>
</svg>
